# xmcd
#
# Track frame offsets: 
#        150
#        22034
#        41669
#        65416
#        87647
#        106632
#        127831
#        156302
#        182642
#        210120
#        227491
#        251299
#
# Disc length: 3573 seconds
#
# Revision: 0
# Processed by: cddbd v1.5.2PL0 Copyright (c) Steve Scherf et al.
# Submitted via: ExactAudioCopy v0.99pb3
#
DISCID=8f0df30c
DTITLE=Builders and the Butchers, the - Western Medicine [DigiCD]
DYEAR=2013
DGENRE=Folk
TTITLE0=Blood Runs Cold
TTITLE1=Dirt in the Ground
TTITLE2=No Roses
TTITLE3=Desert On Fire
TTITLE4=Pennies in the Well
TTITLE5=Watching the World
TTITLE6=Hellfire Mountain
TTITLE7=The Snow
TTITLE8=Poison Water
TTITLE9=Redemption Sound
TTITLE10=Ceceil
TTITLE11=Take Me Home
EXTD=
EXTT0=
EXTT1=
EXTT2=
EXTT3=
EXTT4=
EXTT5=
EXTT6=
EXTT7=
EXTT8=
EXTT9=
EXTT10=
EXTT11=
PLAYORDER=
